<?xml version="1.0" encoding="UTF-8"?>
<mxfile host="app.diagrams.net" modified="2021-05-14T16:49:14.248Z" agent="5.0 (Windows NT 10.0; Win64; x64) AppleWebKit/537.36 (KHTML, like Gecko) Chrome/90.0.4430.212 Safari/537.36" etag="uJUxvl1ANFaqtcGYo7p_" version="14.6.13" type="google">
  <diagram id="YWIrthZDNr-yEC6l_Tu2" name="Page-1">
    <mxGraphModel dx="780" dy="412" grid="1" gridSize="10" guides="1" tooltips="1" connect="1" arrows="1" fold="1" page="1" pageScale="1" pageWidth="827" pageHeight="1169" math="0" shadow="0">
      <root>
        <mxCell id="0" />
        <mxCell id="1" parent="0" />
        <mxCell id="L-cybXwxKGCwDNNcK4Tk-94" value="" style="rounded=0;whiteSpace=wrap;html=1;" parent="1" vertex="1">
          <mxGeometry x="132" y="590" width="1270" height="310" as="geometry" />
        </mxCell>
        <mxCell id="ymZq4ziiiDrzz2XUPteQ-3" value="Manager" style="shape=umlActor;verticalLabelPosition=bottom;verticalAlign=top;html=1;outlineConnect=0;" parent="1" vertex="1">
          <mxGeometry x="168.54" y="120" width="30" height="60" as="geometry" />
        </mxCell>
        <mxCell id="ymZq4ziiiDrzz2XUPteQ-7" value="" style="endArrow=none;html=1;" parent="1" edge="1">
          <mxGeometry width="50" height="50" relative="1" as="geometry">
            <mxPoint x="184" y="960" as="sourcePoint" />
            <mxPoint x="183.68" y="197.5" as="targetPoint" />
          </mxGeometry>
        </mxCell>
        <mxCell id="ymZq4ziiiDrzz2XUPteQ-11" value=":ViewController" style="rounded=0;whiteSpace=wrap;html=1;" parent="1" vertex="1">
          <mxGeometry x="285" y="120" width="120" height="60" as="geometry" />
        </mxCell>
        <mxCell id="ymZq4ziiiDrzz2XUPteQ-17" value=":Controller" style="rounded=0;whiteSpace=wrap;html=1;" parent="1" vertex="1">
          <mxGeometry x="430" y="120" width="120" height="60" as="geometry" />
        </mxCell>
        <mxCell id="ymZq4ziiiDrzz2XUPteQ-18" value=":GuestListView" style="rounded=0;whiteSpace=wrap;html=1;" parent="1" vertex="1">
          <mxGeometry x="580" y="120" width="120" height="60" as="geometry" />
        </mxCell>
        <mxCell id="ymZq4ziiiDrzz2XUPteQ-46" value=":SpecificGuestView" style="rounded=0;whiteSpace=wrap;html=1;" parent="1" vertex="1">
          <mxGeometry x="730" y="120" width="120" height="60" as="geometry" />
        </mxCell>
        <mxCell id="ymZq4ziiiDrzz2XUPteQ-47" value="&lt;div style=&quot;text-align: right&quot;&gt;&lt;span&gt;:GuestBookIssueList&lt;/span&gt;&lt;/div&gt;View" style="rounded=0;whiteSpace=wrap;html=1;" parent="1" vertex="1">
          <mxGeometry x="880" y="120" width="120" height="60" as="geometry" />
        </mxCell>
        <mxCell id="ymZq4ziiiDrzz2XUPteQ-48" value=":DatabaseConnection" style="rounded=0;whiteSpace=wrap;html=1;" parent="1" vertex="1">
          <mxGeometry x="1030" y="120" width="120" height="60" as="geometry" />
        </mxCell>
        <mxCell id="ymZq4ziiiDrzz2XUPteQ-49" value="Database" style="shape=umlActor;verticalLabelPosition=bottom;verticalAlign=top;html=1;outlineConnect=0;" parent="1" vertex="1">
          <mxGeometry x="1340" y="120" width="30" height="60" as="geometry" />
        </mxCell>
        <mxCell id="ymZq4ziiiDrzz2XUPteQ-52" value="" style="endArrow=none;html=1;entryX=0.5;entryY=1;entryDx=0;entryDy=0;" parent="1" target="ymZq4ziiiDrzz2XUPteQ-47" edge="1">
          <mxGeometry width="50" height="50" relative="1" as="geometry">
            <mxPoint x="939.5" y="390" as="sourcePoint" />
            <mxPoint x="939.5" y="330" as="targetPoint" />
          </mxGeometry>
        </mxCell>
        <mxCell id="ymZq4ziiiDrzz2XUPteQ-57" style="edgeStyle=orthogonalEdgeStyle;rounded=0;orthogonalLoop=1;jettySize=auto;html=1;entryX=0.5;entryY=1;entryDx=0;entryDy=0;strokeColor=none;" parent="1" target="ymZq4ziiiDrzz2XUPteQ-48" edge="1">
          <mxGeometry relative="1" as="geometry">
            <mxPoint x="1090" y="410" as="sourcePoint" />
          </mxGeometry>
        </mxCell>
        <mxCell id="ymZq4ziiiDrzz2XUPteQ-58" value="" style="endArrow=none;html=1;exitX=0.5;exitY=0;exitDx=0;exitDy=0;startArrow=none;" parent="1" source="L-cybXwxKGCwDNNcK4Tk-52" edge="1">
          <mxGeometry width="50" height="50" relative="1" as="geometry">
            <mxPoint x="1090" y="440" as="sourcePoint" />
            <mxPoint x="1089.5" y="180" as="targetPoint" />
          </mxGeometry>
        </mxCell>
        <mxCell id="ymZq4ziiiDrzz2XUPteQ-60" value="" style="endArrow=none;html=1;" parent="1" edge="1">
          <mxGeometry width="50" height="50" relative="1" as="geometry">
            <mxPoint x="1360" y="960" as="sourcePoint" />
            <mxPoint x="1360" y="200" as="targetPoint" />
          </mxGeometry>
        </mxCell>
        <mxCell id="ymZq4ziiiDrzz2XUPteQ-69" value="" style="endArrow=none;html=1;startArrow=none;" parent="1" source="L-cybXwxKGCwDNNcK4Tk-62" edge="1">
          <mxGeometry width="50" height="50" relative="1" as="geometry">
            <mxPoint x="940" y="940" as="sourcePoint" />
            <mxPoint x="939.71" y="390" as="targetPoint" />
          </mxGeometry>
        </mxCell>
        <mxCell id="ymZq4ziiiDrzz2XUPteQ-71" value="" style="endArrow=none;html=1;exitX=0.5;exitY=0;exitDx=0;exitDy=0;entryX=0.5;entryY=1;entryDx=0;entryDy=0;startArrow=none;" parent="1" source="L-cybXwxKGCwDNNcK4Tk-33" target="ymZq4ziiiDrzz2XUPteQ-11" edge="1">
          <mxGeometry width="50" height="50" relative="1" as="geometry">
            <mxPoint x="344.76" y="380" as="sourcePoint" />
            <mxPoint x="345" y="290" as="targetPoint" />
          </mxGeometry>
        </mxCell>
        <mxCell id="ymZq4ziiiDrzz2XUPteQ-72" value="" style="rounded=0;whiteSpace=wrap;html=1;" parent="1" vertex="1">
          <mxGeometry x="340" y="410" width="10" height="90" as="geometry" />
        </mxCell>
        <mxCell id="ymZq4ziiiDrzz2XUPteQ-102" value="" style="endArrow=none;html=1;entryX=0.5;entryY=1;entryDx=0;entryDy=0;startArrow=none;" parent="1" source="L-cybXwxKGCwDNNcK4Tk-2" target="ymZq4ziiiDrzz2XUPteQ-18" edge="1">
          <mxGeometry width="50" height="50" relative="1" as="geometry">
            <mxPoint x="640" y="1820" as="sourcePoint" />
            <mxPoint x="640" y="270" as="targetPoint" />
          </mxGeometry>
        </mxCell>
        <mxCell id="4NnVZ7MNyfkNe0QS93XD-5" value="" style="endArrow=none;html=1;exitX=0.5;exitY=0;exitDx=0;exitDy=0;entryX=0.5;entryY=1;entryDx=0;entryDy=0;startArrow=none;" parent="1" source="L-cybXwxKGCwDNNcK4Tk-27" target="ymZq4ziiiDrzz2XUPteQ-46" edge="1">
          <mxGeometry width="50" height="50" relative="1" as="geometry">
            <mxPoint x="790" y="780" as="sourcePoint" />
            <mxPoint x="789.5" y="450" as="targetPoint" />
          </mxGeometry>
        </mxCell>
        <mxCell id="4NnVZ7MNyfkNe0QS93XD-8" value="select specific guest request" style="text;html=1;strokeColor=none;fillColor=none;align=center;verticalAlign=middle;whiteSpace=wrap;rounded=0;" parent="1" vertex="1">
          <mxGeometry x="183.96" y="400" width="158.54" height="40" as="geometry" />
        </mxCell>
        <mxCell id="B4GZYfJI3BeL6jTduoS_-2" value="" style="rounded=0;whiteSpace=wrap;html=1;" parent="1" vertex="1">
          <mxGeometry x="276.5" y="200" width="290" height="110" as="geometry" />
        </mxCell>
        <mxCell id="B4GZYfJI3BeL6jTduoS_-3" value="" style="endArrow=none;html=1;" parent="1" edge="1">
          <mxGeometry width="50" height="50" relative="1" as="geometry">
            <mxPoint x="276.25" y="244" as="sourcePoint" />
            <mxPoint x="276.25" y="244" as="targetPoint" />
          </mxGeometry>
        </mxCell>
        <mxCell id="B4GZYfJI3BeL6jTduoS_-4" value="" style="verticalLabelPosition=bottom;verticalAlign=top;html=1;shape=card;whiteSpace=wrap;size=20;arcSize=12;rotation=-180;" parent="1" vertex="1">
          <mxGeometry x="276.25" y="200" width="50" height="40" as="geometry" />
        </mxCell>
        <mxCell id="B4GZYfJI3BeL6jTduoS_-5" value="&lt;span style=&quot;font-size: 18px&quot;&gt;ref&lt;/span&gt;" style="text;html=1;strokeColor=none;fillColor=none;align=center;verticalAlign=middle;whiteSpace=wrap;rounded=0;" parent="1" vertex="1">
          <mxGeometry x="276.25" y="210" width="45" height="20" as="geometry" />
        </mxCell>
        <mxCell id="B4GZYfJI3BeL6jTduoS_-6" value="&lt;font style=&quot;font-size: 17px&quot;&gt;Search Guest&lt;/font&gt;" style="text;html=1;strokeColor=none;fillColor=none;align=center;verticalAlign=middle;whiteSpace=wrap;rounded=0;" parent="1" vertex="1">
          <mxGeometry x="267.5" y="245" width="307.5" height="20" as="geometry" />
        </mxCell>
        <mxCell id="B4GZYfJI3BeL6jTduoS_-7" value="" style="rounded=0;whiteSpace=wrap;html=1;" parent="1" vertex="1">
          <mxGeometry x="483.54" y="310" width="10" height="20" as="geometry" />
        </mxCell>
        <mxCell id="B4GZYfJI3BeL6jTduoS_-8" value="" style="endArrow=classic;html=1;exitX=0;exitY=0.5;exitDx=0;exitDy=0;dashed=1;entryX=1;entryY=0;entryDx=0;entryDy=0;" parent="1" source="B4GZYfJI3BeL6jTduoS_-7" target="L-cybXwxKGCwDNNcK4Tk-33" edge="1">
          <mxGeometry width="50" height="50" relative="1" as="geometry">
            <mxPoint x="470" y="320" as="sourcePoint" />
            <mxPoint x="344" y="320" as="targetPoint" />
          </mxGeometry>
        </mxCell>
        <mxCell id="B4GZYfJI3BeL6jTduoS_-9" value="return guestList" style="text;html=1;strokeColor=none;fillColor=none;align=center;verticalAlign=middle;whiteSpace=wrap;rounded=0;" parent="1" vertex="1">
          <mxGeometry x="367.5" y="320" width="100" height="20" as="geometry" />
        </mxCell>
        <mxCell id="L-cybXwxKGCwDNNcK4Tk-1" value="" style="endArrow=classic;html=1;entryX=0;entryY=0;entryDx=0;entryDy=0;" parent="1" target="L-cybXwxKGCwDNNcK4Tk-2" edge="1">
          <mxGeometry width="50" height="50" relative="1" as="geometry">
            <mxPoint x="345" y="350" as="sourcePoint" />
            <mxPoint x="405" y="350" as="targetPoint" />
          </mxGeometry>
        </mxCell>
        <mxCell id="L-cybXwxKGCwDNNcK4Tk-2" value="" style="rounded=0;whiteSpace=wrap;html=1;" parent="1" vertex="1">
          <mxGeometry x="635" y="350" width="10" height="40" as="geometry" />
        </mxCell>
        <mxCell id="L-cybXwxKGCwDNNcK4Tk-3" value="" style="endArrow=none;html=1;entryX=0.5;entryY=1;entryDx=0;entryDy=0;" parent="1" target="L-cybXwxKGCwDNNcK4Tk-2" edge="1">
          <mxGeometry width="50" height="50" relative="1" as="geometry">
            <mxPoint x="640" y="960" as="sourcePoint" />
            <mxPoint x="640" y="180" as="targetPoint" />
          </mxGeometry>
        </mxCell>
        <mxCell id="L-cybXwxKGCwDNNcK4Tk-4" value="searchGuestListPage = render(guestList : string)" style="text;html=1;strokeColor=none;fillColor=none;align=center;verticalAlign=middle;whiteSpace=wrap;rounded=0;" parent="1" vertex="1">
          <mxGeometry x="364" y="350" width="270" height="20" as="geometry" />
        </mxCell>
        <mxCell id="L-cybXwxKGCwDNNcK4Tk-5" value="" style="endArrow=classic;html=1;exitX=0;exitY=0.75;exitDx=0;exitDy=0;dashed=1;" parent="1" source="L-cybXwxKGCwDNNcK4Tk-2" edge="1">
          <mxGeometry width="50" height="50" relative="1" as="geometry">
            <mxPoint x="610" y="380" as="sourcePoint" />
            <mxPoint x="184" y="380" as="targetPoint" />
          </mxGeometry>
        </mxCell>
        <mxCell id="L-cybXwxKGCwDNNcK4Tk-6" value="result displayed" style="text;html=1;strokeColor=none;fillColor=none;align=center;verticalAlign=middle;whiteSpace=wrap;rounded=0;" parent="1" vertex="1">
          <mxGeometry x="198.54" y="380" width="91.46" height="20" as="geometry" />
        </mxCell>
        <mxCell id="L-cybXwxKGCwDNNcK4Tk-9" value="" style="endArrow=classic;html=1;entryX=0;entryY=0;entryDx=0;entryDy=0;" parent="1" target="ymZq4ziiiDrzz2XUPteQ-72" edge="1">
          <mxGeometry width="50" height="50" relative="1" as="geometry">
            <mxPoint x="184" y="410" as="sourcePoint" />
            <mxPoint x="330.25" y="410" as="targetPoint" />
          </mxGeometry>
        </mxCell>
        <mxCell id="L-cybXwxKGCwDNNcK4Tk-26" value="" style="endArrow=classic;html=1;entryX=0;entryY=0;entryDx=0;entryDy=0;" parent="1" target="L-cybXwxKGCwDNNcK4Tk-27" edge="1">
          <mxGeometry width="50" height="50" relative="1" as="geometry">
            <mxPoint x="350" y="440" as="sourcePoint" />
            <mxPoint x="780" y="440" as="targetPoint" />
          </mxGeometry>
        </mxCell>
        <mxCell id="L-cybXwxKGCwDNNcK4Tk-27" value="" style="rounded=0;whiteSpace=wrap;html=1;" parent="1" vertex="1">
          <mxGeometry x="785" y="440" width="10" height="50" as="geometry" />
        </mxCell>
        <mxCell id="L-cybXwxKGCwDNNcK4Tk-28" value="" style="endArrow=none;html=1;entryX=0.5;entryY=1;entryDx=0;entryDy=0;" parent="1" target="L-cybXwxKGCwDNNcK4Tk-27" edge="1">
          <mxGeometry width="50" height="50" relative="1" as="geometry">
            <mxPoint x="790" y="960" as="sourcePoint" />
            <mxPoint x="790" y="180" as="targetPoint" />
          </mxGeometry>
        </mxCell>
        <mxCell id="L-cybXwxKGCwDNNcK4Tk-29" value="specificGuestInfoPage = render(specificGuestInfo : string)" style="text;html=1;strokeColor=none;fillColor=none;align=center;verticalAlign=middle;whiteSpace=wrap;rounded=0;" parent="1" vertex="1">
          <mxGeometry x="453.65" y="440" width="331.35" height="20" as="geometry" />
        </mxCell>
        <mxCell id="L-cybXwxKGCwDNNcK4Tk-31" value="" style="endArrow=classic;html=1;exitX=0;exitY=0.75;exitDx=0;exitDy=0;dashed=1;" parent="1" source="L-cybXwxKGCwDNNcK4Tk-27" edge="1">
          <mxGeometry width="50" height="50" relative="1" as="geometry">
            <mxPoint x="750" y="480" as="sourcePoint" />
            <mxPoint x="185" y="475" as="targetPoint" />
          </mxGeometry>
        </mxCell>
        <mxCell id="L-cybXwxKGCwDNNcK4Tk-32" value="result displayed" style="text;html=1;strokeColor=none;fillColor=none;align=center;verticalAlign=middle;whiteSpace=wrap;rounded=0;" parent="1" vertex="1">
          <mxGeometry x="198.54" y="470" width="90" height="30" as="geometry" />
        </mxCell>
        <mxCell id="L-cybXwxKGCwDNNcK4Tk-33" value="" style="rounded=0;whiteSpace=wrap;html=1;" parent="1" vertex="1">
          <mxGeometry x="340" y="320" width="10" height="40" as="geometry" />
        </mxCell>
        <mxCell id="L-cybXwxKGCwDNNcK4Tk-34" value="" style="endArrow=none;html=1;exitX=0.5;exitY=0;exitDx=0;exitDy=0;entryX=0.5;entryY=1;entryDx=0;entryDy=0;" parent="1" source="ymZq4ziiiDrzz2XUPteQ-72" target="L-cybXwxKGCwDNNcK4Tk-33" edge="1">
          <mxGeometry width="50" height="50" relative="1" as="geometry">
            <mxPoint x="344.9999999999998" y="410" as="sourcePoint" />
            <mxPoint x="344.9999999999998" y="180" as="targetPoint" />
          </mxGeometry>
        </mxCell>
        <mxCell id="L-cybXwxKGCwDNNcK4Tk-39" value="" style="rounded=0;whiteSpace=wrap;html=1;" parent="1" vertex="1">
          <mxGeometry x="340" y="510" width="10" height="240" as="geometry" />
        </mxCell>
        <mxCell id="L-cybXwxKGCwDNNcK4Tk-40" value="" style="endArrow=none;html=1;entryX=0.5;entryY=1;entryDx=0;entryDy=0;" parent="1" target="L-cybXwxKGCwDNNcK4Tk-39" edge="1">
          <mxGeometry width="50" height="50" relative="1" as="geometry">
            <mxPoint x="345" y="960" as="sourcePoint" />
            <mxPoint x="344.95999999999975" y="740" as="targetPoint" />
          </mxGeometry>
        </mxCell>
        <mxCell id="L-cybXwxKGCwDNNcK4Tk-41" value="" style="endArrow=classic;html=1;entryX=0;entryY=0;entryDx=0;entryDy=0;" parent="1" target="L-cybXwxKGCwDNNcK4Tk-39" edge="1">
          <mxGeometry width="50" height="50" relative="1" as="geometry">
            <mxPoint x="183.95999999999998" y="510" as="sourcePoint" />
            <mxPoint x="233.95999999999998" y="460" as="targetPoint" />
          </mxGeometry>
        </mxCell>
        <mxCell id="L-cybXwxKGCwDNNcK4Tk-42" value="get guestBookIssueList request" style="text;html=1;strokeColor=none;fillColor=none;align=center;verticalAlign=middle;whiteSpace=wrap;rounded=0;" parent="1" vertex="1">
          <mxGeometry x="198.96" y="510" width="128.54" height="30" as="geometry" />
        </mxCell>
        <mxCell id="L-cybXwxKGCwDNNcK4Tk-43" value="" style="endArrow=none;html=1;startArrow=none;entryX=0.5;entryY=1;entryDx=0;entryDy=0;" parent="1" source="L-cybXwxKGCwDNNcK4Tk-47" target="B4GZYfJI3BeL6jTduoS_-7" edge="1">
          <mxGeometry width="50" height="50" relative="1" as="geometry">
            <mxPoint x="488" y="720" as="sourcePoint" />
            <mxPoint x="488.3" y="530" as="targetPoint" />
          </mxGeometry>
        </mxCell>
        <mxCell id="L-cybXwxKGCwDNNcK4Tk-44" value="" style="endArrow=classic;html=1;entryX=0;entryY=0;entryDx=0;entryDy=0;" parent="1" target="L-cybXwxKGCwDNNcK4Tk-47" edge="1">
          <mxGeometry width="50" height="50" relative="1" as="geometry">
            <mxPoint x="350" y="530" as="sourcePoint" />
            <mxPoint x="480.5" y="529.9999999999998" as="targetPoint" />
          </mxGeometry>
        </mxCell>
        <mxCell id="L-cybXwxKGCwDNNcK4Tk-45" value="getGuestBookIssueList&lt;br&gt;(userIdx : int,&lt;br&gt;token : string)" style="text;html=1;strokeColor=none;fillColor=none;align=center;verticalAlign=middle;whiteSpace=wrap;rounded=0;" parent="1" vertex="1">
          <mxGeometry x="353.75" y="540" width="127.5" height="30" as="geometry" />
        </mxCell>
        <mxCell id="L-cybXwxKGCwDNNcK4Tk-47" value="" style="rounded=0;whiteSpace=wrap;html=1;" parent="1" vertex="1">
          <mxGeometry x="482.5" y="530" width="10" height="60" as="geometry" />
        </mxCell>
        <mxCell id="L-cybXwxKGCwDNNcK4Tk-51" value="" style="endArrow=classic;html=1;entryX=0;entryY=0;entryDx=0;entryDy=0;" parent="1" target="L-cybXwxKGCwDNNcK4Tk-52" edge="1">
          <mxGeometry width="50" height="50" relative="1" as="geometry">
            <mxPoint x="492.46" y="620" as="sourcePoint" />
            <mxPoint x="1079.96" y="620" as="targetPoint" />
          </mxGeometry>
        </mxCell>
        <mxCell id="L-cybXwxKGCwDNNcK4Tk-52" value="" style="rounded=0;whiteSpace=wrap;html=1;" parent="1" vertex="1">
          <mxGeometry x="1084.96" y="620" width="10" height="60" as="geometry" />
        </mxCell>
        <mxCell id="L-cybXwxKGCwDNNcK4Tk-53" value="" style="endArrow=none;html=1;" parent="1" target="L-cybXwxKGCwDNNcK4Tk-52" edge="1">
          <mxGeometry width="50" height="50" relative="1" as="geometry">
            <mxPoint x="1090" y="960" as="sourcePoint" />
            <mxPoint x="1089.96" y="470" as="targetPoint" />
          </mxGeometry>
        </mxCell>
        <mxCell id="L-cybXwxKGCwDNNcK4Tk-54" value="guestBookIssueList = retrieve(userIdx : int)" style="text;html=1;strokeColor=none;fillColor=none;align=center;verticalAlign=middle;whiteSpace=wrap;rounded=0;" parent="1" vertex="1">
          <mxGeometry x="829.96" y="620" width="230" height="20" as="geometry" />
        </mxCell>
        <mxCell id="L-cybXwxKGCwDNNcK4Tk-55" value="" style="endArrow=classic;html=1;" parent="1" edge="1">
          <mxGeometry width="50" height="50" relative="1" as="geometry">
            <mxPoint x="1094.96" y="639" as="sourcePoint" />
            <mxPoint x="1359.96" y="639" as="targetPoint" />
          </mxGeometry>
        </mxCell>
        <mxCell id="L-cybXwxKGCwDNNcK4Tk-56" value="retrieve records" style="text;html=1;strokeColor=none;fillColor=none;align=center;verticalAlign=middle;whiteSpace=wrap;rounded=0;" parent="1" vertex="1">
          <mxGeometry x="1240.96" y="630" width="110" height="35" as="geometry" />
        </mxCell>
        <mxCell id="L-cybXwxKGCwDNNcK4Tk-57" value="" style="endArrow=classic;html=1;entryX=1.1;entryY=0.65;entryDx=0;entryDy=0;entryPerimeter=0;dashed=1;" parent="1" edge="1">
          <mxGeometry width="50" height="50" relative="1" as="geometry">
            <mxPoint x="1359.96" y="659" as="sourcePoint" />
            <mxPoint x="1095.96" y="659" as="targetPoint" />
          </mxGeometry>
        </mxCell>
        <mxCell id="L-cybXwxKGCwDNNcK4Tk-58" value="result" style="text;html=1;strokeColor=none;fillColor=none;align=center;verticalAlign=middle;whiteSpace=wrap;rounded=0;" parent="1" vertex="1">
          <mxGeometry x="1109.96" y="650" width="40" height="30" as="geometry" />
        </mxCell>
        <mxCell id="L-cybXwxKGCwDNNcK4Tk-59" value="" style="endArrow=classic;html=1;dashed=1;entryX=1.053;entryY=0.694;entryDx=0;entryDy=0;entryPerimeter=0;" parent="1" edge="1">
          <mxGeometry width="50" height="50" relative="1" as="geometry">
            <mxPoint x="482.96" y="692" as="sourcePoint" />
            <mxPoint x="350.48999999999995" y="691.04" as="targetPoint" />
          </mxGeometry>
        </mxCell>
        <mxCell id="L-cybXwxKGCwDNNcK4Tk-60" value="return guestBookIssueList" style="text;html=1;strokeColor=none;fillColor=none;align=center;verticalAlign=middle;whiteSpace=wrap;rounded=0;" parent="1" vertex="1">
          <mxGeometry x="351.25" y="690" width="132.5" height="30" as="geometry" />
        </mxCell>
        <mxCell id="L-cybXwxKGCwDNNcK4Tk-61" value="" style="endArrow=classic;html=1;entryX=0;entryY=0;entryDx=0;entryDy=0;" parent="1" target="L-cybXwxKGCwDNNcK4Tk-62" edge="1">
          <mxGeometry width="50" height="50" relative="1" as="geometry">
            <mxPoint x="349.96" y="730" as="sourcePoint" />
            <mxPoint x="849.96" y="730" as="targetPoint" />
          </mxGeometry>
        </mxCell>
        <mxCell id="L-cybXwxKGCwDNNcK4Tk-62" value="" style="rounded=0;whiteSpace=wrap;html=1;" parent="1" vertex="1">
          <mxGeometry x="934.96" y="730" width="10" height="60" as="geometry" />
        </mxCell>
        <mxCell id="L-cybXwxKGCwDNNcK4Tk-63" value="" style="endArrow=none;html=1;" parent="1" target="L-cybXwxKGCwDNNcK4Tk-62" edge="1">
          <mxGeometry width="50" height="50" relative="1" as="geometry">
            <mxPoint x="940" y="960" as="sourcePoint" />
            <mxPoint x="939.6700000000001" y="360" as="targetPoint" />
          </mxGeometry>
        </mxCell>
        <mxCell id="L-cybXwxKGCwDNNcK4Tk-64" value="guestBookIssueListPage = render(guestBookIssueList : string)" style="text;html=1;strokeColor=none;fillColor=none;align=center;verticalAlign=middle;whiteSpace=wrap;rounded=0;" parent="1" vertex="1">
          <mxGeometry x="574.96" y="730" width="355" height="20" as="geometry" />
        </mxCell>
        <mxCell id="L-cybXwxKGCwDNNcK4Tk-65" value="" style="endArrow=classic;html=1;dashed=1;exitX=0;exitY=0.75;exitDx=0;exitDy=0;" parent="1" source="L-cybXwxKGCwDNNcK4Tk-62" edge="1">
          <mxGeometry width="50" height="50" relative="1" as="geometry">
            <mxPoint x="929.96" y="770" as="sourcePoint" />
            <mxPoint x="183.96" y="775" as="targetPoint" />
          </mxGeometry>
        </mxCell>
        <mxCell id="L-cybXwxKGCwDNNcK4Tk-66" value="result displayed" style="text;html=1;strokeColor=none;fillColor=none;align=center;verticalAlign=middle;whiteSpace=wrap;rounded=0;" parent="1" vertex="1">
          <mxGeometry x="198.5" y="770" width="86" height="30" as="geometry" />
        </mxCell>
        <mxCell id="L-cybXwxKGCwDNNcK4Tk-67" value="" style="endArrow=none;html=1;" parent="1" edge="1">
          <mxGeometry width="50" height="50" relative="1" as="geometry">
            <mxPoint x="487" y="960" as="sourcePoint" />
            <mxPoint x="487" y="900" as="targetPoint" />
          </mxGeometry>
        </mxCell>
        <mxCell id="L-cybXwxKGCwDNNcK4Tk-68" value="" style="endArrow=none;html=1;" parent="1" edge="1">
          <mxGeometry width="50" height="50" relative="1" as="geometry">
            <mxPoint x="344.29" y="500" as="sourcePoint" />
            <mxPoint x="344" y="510" as="targetPoint" />
          </mxGeometry>
        </mxCell>
        <mxCell id="L-cybXwxKGCwDNNcK4Tk-69" value=":Authenticator" style="rounded=0;whiteSpace=wrap;html=1;" parent="1" vertex="1">
          <mxGeometry x="1181" y="120" width="120" height="60" as="geometry" />
        </mxCell>
        <mxCell id="L-cybXwxKGCwDNNcK4Tk-70" value="" style="endArrow=none;html=1;startArrow=none;" parent="1" source="L-cybXwxKGCwDNNcK4Tk-74" edge="1">
          <mxGeometry width="50" height="50" relative="1" as="geometry">
            <mxPoint x="1240" y="760" as="sourcePoint" />
            <mxPoint x="1241" y="180" as="targetPoint" />
          </mxGeometry>
        </mxCell>
        <mxCell id="L-cybXwxKGCwDNNcK4Tk-72" value="" style="endArrow=classic;html=1;exitX=0.6;exitY=0.167;exitDx=0;exitDy=0;exitPerimeter=0;entryX=0;entryY=0;entryDx=0;entryDy=0;" parent="1" target="L-cybXwxKGCwDNNcK4Tk-74" edge="1">
          <mxGeometry width="50" height="50" relative="1" as="geometry">
            <mxPoint x="492.5" y="540.04" as="sourcePoint" />
            <mxPoint x="932.5" y="540" as="targetPoint" />
          </mxGeometry>
        </mxCell>
        <mxCell id="L-cybXwxKGCwDNNcK4Tk-73" value="isAuthenticateUser = retrieve(token : string)" style="text;html=1;strokeColor=none;fillColor=none;align=center;verticalAlign=middle;whiteSpace=wrap;rounded=0;" parent="1" vertex="1">
          <mxGeometry x="980" y="520" width="242.5" height="20" as="geometry" />
        </mxCell>
        <mxCell id="L-cybXwxKGCwDNNcK4Tk-74" value="" style="rounded=0;whiteSpace=wrap;html=1;" parent="1" vertex="1">
          <mxGeometry x="1236" y="540" width="10" height="40" as="geometry" />
        </mxCell>
        <mxCell id="L-cybXwxKGCwDNNcK4Tk-75" value="" style="endArrow=none;html=1;entryX=0.5;entryY=1;entryDx=0;entryDy=0;" parent="1" target="L-cybXwxKGCwDNNcK4Tk-74" edge="1">
          <mxGeometry width="50" height="50" relative="1" as="geometry">
            <mxPoint x="1241" y="960" as="sourcePoint" />
            <mxPoint x="1240.9123809523812" y="630" as="targetPoint" />
          </mxGeometry>
        </mxCell>
        <mxCell id="L-cybXwxKGCwDNNcK4Tk-97" value="isAuthenticateUser == true" style="text;html=1;strokeColor=none;fillColor=none;align=center;verticalAlign=middle;whiteSpace=wrap;rounded=0;" parent="1" vertex="1">
          <mxGeometry x="417.75" y="580" width="162.5" height="40" as="geometry" />
        </mxCell>
        <mxCell id="L-cybXwxKGCwDNNcK4Tk-98" value="" style="verticalLabelPosition=bottom;verticalAlign=top;html=1;shape=card;whiteSpace=wrap;size=20;arcSize=12;rotation=-180;" parent="1" vertex="1">
          <mxGeometry x="132" y="590" width="46" height="40" as="geometry" />
        </mxCell>
        <mxCell id="L-cybXwxKGCwDNNcK4Tk-99" value="&lt;font style=&quot;font-size: 18px&quot;&gt;alt&lt;/font&gt;" style="text;html=1;strokeColor=none;fillColor=none;align=center;verticalAlign=middle;whiteSpace=wrap;rounded=0;" parent="1" vertex="1">
          <mxGeometry x="130" y="600" width="45" height="20" as="geometry" />
        </mxCell>
        <mxCell id="L-cybXwxKGCwDNNcK4Tk-100" value="" style="rounded=0;whiteSpace=wrap;html=1;" parent="1" vertex="1">
          <mxGeometry x="482.5" y="610" width="10" height="100" as="geometry" />
        </mxCell>
        <mxCell id="L-cybXwxKGCwDNNcK4Tk-101" value="" style="endArrow=none;html=1;dashed=1;" parent="1" edge="1">
          <mxGeometry width="50" height="50" relative="1" as="geometry">
            <mxPoint x="133.95999999999998" y="830" as="sourcePoint" />
            <mxPoint x="1402" y="830" as="targetPoint" />
          </mxGeometry>
        </mxCell>
        <mxCell id="L-cybXwxKGCwDNNcK4Tk-103" value="[else]" style="text;html=1;strokeColor=none;fillColor=none;align=center;verticalAlign=middle;whiteSpace=wrap;rounded=0;" parent="1" vertex="1">
          <mxGeometry x="450" y="830" width="30" height="20" as="geometry" />
        </mxCell>
        <mxCell id="L-cybXwxKGCwDNNcK4Tk-104" value="isAuthenticateUser == false" style="text;html=1;strokeColor=none;fillColor=none;align=center;verticalAlign=middle;whiteSpace=wrap;rounded=0;" parent="1" vertex="1">
          <mxGeometry x="407.29" y="850" width="162.5" height="30" as="geometry" />
        </mxCell>
      </root>
    </mxGraphModel>
  </diagram>
</mxfile>
